HIERARCHY
ROOT Hips
{
  OFFSET 1.44925e-005 102.336 -0.101585
  CHANNELS 6 Xposition Yposition Zposition Zrotation Xrotation Yrotation
  JOINT LeftUpLeg
  {
    OFFSET 8.9458 -8.66707 0.101652
    CHANNELS 3 Zrotation Xrotation Yrotation
    JOINT LeftLeg
    {
      OFFSET 0 -44.4227 1.3727
      CHANNELS 3 Zrotation Xrotation Yrotation
      JOINT LeftFoot
      {
        OFFSET -0.253549 -42.0924 -1.46059
        CHANNELS 3 Zrotation Xrotation Yrotation
        JOINT LeftToes
        {
          OFFSET -0.04 -4.41509 8.4991
          CHANNELS 3 Zrotation Xrotation Yrotation
          End Site
          {
            OFFSET 0.08 -0.047448 9.77979
          }
        }
      }
    }
  }
  JOINT Spine
  {
    OFFSET 0 11.8905 0
    CHANNELS 3 Zrotation Xrotation Yrotation
    JOINT Spine1
    {
      OFFSET 0 25.6574 0.127663
      CHANNELS 3 Zrotation Xrotation Yrotation
      JOINT RightShoulder
      {
        OFFSET -8.99 -0.362252 -0.22
        CHANNELS 3 Zrotation Xrotation Yrotation
        JOINT RightArm
        {
          OFFSET -10.2827 -0.00338 0.322123
          CHANNELS 3 Zrotation Xrotation Yrotation
          JOINT RightForeArm
          {
            OFFSET -26.364 0.099144 -1.42434
            CHANNELS 3 Zrotation Xrotation Yrotation
            JOINT RightHand
            {
              OFFSET -22.0324 0.085362 1.02216
              CHANNELS 3 Zrotation Xrotation Yrotation
              End Site
              {
                OFFSET -13.3284 -0.6 1.50291
              }
            }
          }
        }
      }
      JOINT LeftShoulder1
      {
        OFFSET 8.99 -0.362252 -0.22
        CHANNELS 3 Zrotation Xrotation Yrotation
        JOINT LeftArm
        {
          OFFSET 10.2827 -0.00337999 0.322123
          CHANNELS 3 Zrotation Xrotation Yrotation
          JOINT LeftForeArm
          {
            OFFSET 26.2597 0.099144 -1.42434
            CHANNELS 3 Zrotation Xrotation Yrotation
            JOINT LeftHand
            {
              OFFSET 22.0902 0.085362 1.02216
              CHANNELS 3 Zrotation Xrotation Yrotation
              End Site
              {
                OFFSET 13.419 -0.6 1.50291
              }
            }
          }
        }
      }
      JOINT Head
      {
        OFFSET 0 8.73416 0.011341
        CHANNELS 3 Zrotation Xrotation Yrotation
        End Site
        {
          OFFSET -0.29 12.7742 2.51395
        }
      }
    }
  }
  JOINT RightUpLeg
  {
    OFFSET -8.9458 -8.66707 0.101652
    CHANNELS 3 Zrotation Xrotation Yrotation
    JOINT RightLeg
    {
      OFFSET 0 -44.4227 1.3727
      CHANNELS 3 Zrotation Xrotation Yrotation
      JOINT RightFoot
      {
        OFFSET 0.253549 -42.0924 -1.46059
        CHANNELS 3 Zrotation Xrotation Yrotation
        JOINT RightToes
        {
          OFFSET 0.04 -4.41509 8.4991
          CHANNELS 3 Zrotation Xrotation Yrotation
          End Site
          {
            OFFSET -0.08 -0.137448 9.77979
          }
        }
      }
    }
  }
}
MOTION
Frames:	21
Frame Time:	0.0333333
60.5806 96.1504 4.20117 -7.42012 -3.71603 -100.631 -7.951 -17.789 1.07318 1.38216 36.6582 23.8646 -2.25063 -16.2784 -0.08842 -1.32547e-009 8.75233e-006 -1.47701e-008 -5.14848 14.7765 2.80994 -5.70911 -0.783794 2.9224 38.6956 1.80282 0.027163 44.5541 -22.8164 12.707 16.0747 50.3447 -7.64624 -9.77586 9.54434 -0.895532 -45.7229 3.63287 -3.41245 -23.4917 -19.175 10.3549 -6.81398 38.7497 -10.5299 5.82328 9.61819 -0.917488 -0.0527551 -16.7407 -2.00318 -6.86842 0.312575 5.05939 -2.51317 71.3946 -12.815 8.43994 0.857548 -0.747093 0.0462048 0.000530889 0.662642 
56.6917 96.9483 4.4783 -7.84564 -3.5583 -100.581 -8.3985 -13.7933 1.55943 1.3482 34.8767 23.6894 -2.62696 -17.9028 -0.146778 -1.32547e-009 8.75233e-006 -1.47701e-008 -5.67012 15.166 2.34726 -5.00858 -0.527768 2.20657 38.9277 1.80479 0.012537 42.5702 -22.7779 8.13055 15.3935 51.0667 -6.36016 -9.74634 9.54804 -0.928438 -45.4799 3.62993 -3.44253 -24.1629 -16.5206 8.28999 -5.18314 36.4578 -13.2404 5.82328 9.61819 -0.917488 -0.16144 -16.1988 -1.66381 -5.97315 -6.28845 4.4796 -3.99721 78.1164 -11.7456 8.8763 -2.71042 -0.520963 0.0462048 0.000530889 0.662642 
52.8129 97.6585 4.72263 -8.09014 -3.22636 -100.323 -8.52448 -9.63881 2.40028 1.30525 32.5444 23.1178 -3.08654 -19.6796 -0.227148 -1.32547e-009 8.75233e-006 -1.47701e-008 -5.76025 15.4707 1.88749 -4.43323 -0.518332 1.54709 38.8641 1.80604 0.0192561 40.3104 -21.929 2.89538 13.3732 48.5111 -2.3316 -9.20701 9.55567 -0.74234 -45.179 3.61692 -3.46208 -24.7883 -13.7514 6.55056 -3.08209 32.6449 -16.6712 5.82328 9.61819 -0.917488 -0.0321973 -15.2687 -1.56994 -4.84567 -12.7482 3.73161 -5.59104 81.465 -10.2541 9.60155 -5.5273 -0.340319 0.0462048 0.000530889 0.662642 
48.9015 98.2739 4.9445 -8.23701 -2.94372 -100.018 -8.64641 -5.43907 3.18765 1.17383 29.8089 22.1964 -3.21573 -20.9022 -0.269229 -1.32547e-009 8.75233e-006 -1.47701e-008 -5.75018 15.6198 1.39166 -3.85369 -0.599742 0.91484 38.5544 1.80701 0.0444481 38.5236 -20.6174 -1.74159 11.7346 45.6814 1.39336 -8.72502 9.56384 -0.57541 -44.923 3.602 -3.47139 -25.1664 -11.1993 5.36364 -0.880388 28.084 -20.9436 5.82328 9.61819 -0.917488 0.223556 -14.1688 -1.3894 -3.70757 -18.6552 3.16314 -5.54592 81.4215 -10.1424 9.07349 -7.39709 -0.19243 0.0462048 0.000530889 0.662642 
44.9884 98.8035 5.13901 -8.409 -2.62282 -99.4352 -8.68256 -1.13421 3.25446 0.741845 26.8236 21.6446 -2.73725 -21.5664 -0.224874 -1.32547e-009 8.75233e-006 -1.47701e-008 -5.46253 15.7426 0.739177 -3.20746 -0.577483 0.246639 38.2774 1.80764 0.0629502 37.3739 -18.6171 -5.36862 10.3156 43.3573 4.37643 -8.99853 9.53572 -0.335238 -44.6339 3.57914 -3.47021 -24.8914 -11.9903 4.45183 1.05438 26.9841 -25.7932 5.82328 9.61819 -0.917488 0.534215 -13.2897 -1.0799 -2.70178 -23.3554 2.43147 -3.94352 77.9947 -11.6731 8.82496 -9.80483 -0.0159406 0.0462048 0.000530889 0.662642 
41.1355 99.1022 5.30181 -8.62044 -2.15328 -98.5237 -8.48985 3.17234 2.98183 0.266046 23.9246 21.449 -1.97431 -22.403 -0.139289 -1.32547e-009 8.75233e-006 -1.47701e-008 -4.73915 16.0136 -0.0126172 -2.62337 -0.482636 -0.417733 38.1824 1.80783 0.0666663 36.5294 -17.1895 -8.16067 9.27782 41.4604 6.37249 -9.54983 9.4939 -0.0913125 -44.201 3.53819 -3.45503 -24.4052 -15.6481 3.47981 3.05674 29.3332 -31.1463 5.82328 9.61819 -0.917488 0.83542 -12.7717 -0.871088 -1.94562 -26.7481 1.2202 -2.60689 71.5541 -13.2247 9.6477 -11.9757 0.168484 0.0462048 0.000530889 0.662642 
37.3016 99.103 5.4213 -8.85869 -1.71297 -97.586 -8.2733 7.33153 2.96814 -0.0417873 21.3324 21.1376 -1.41711 -23.4468 -0.0727157 -1.32547e-009 8.75233e-006 -1.47701e-008 -3.97266 16.3246 -0.635127 -2.05312 -0.305959 -0.953691 38.1905 1.80752 0.0703008 35.5672 -17.4818 -10.2006 8.90279 40.5457 6.96184 -9.41339 9.50327 -0.138788 -43.7598 3.49268 -3.43155 -24.3521 -18.1038 2.30567 5.22491 30.8235 -36.4572 5.82328 9.61819 -0.917488 1.01989 -12.5196 -0.918529 -1.50434 -28.7585 -0.202107 -1.81426 62.4799 -14.1299 10.1412 -13.0299 0.2757 0.0462048 0.000530889 0.662642 
33.3811 98.837 5.47098 -9.07881 -1.65007 -96.827 -8.40013 11.243 3.12611 -0.259128 19.1488 20.5485 -1.2261 -24.2587 -0.0493222 -1.32547e-009 8.75233e-006 -1.47701e-008 -3.76547 16.2903 -0.966555 -1.31805 0.203182 -1.30874 38.2403 1.80662 0.0699355 34.3435 -19.501 -11.468 9.05641 41.4499 6.1711 -8.70124 9.55871 -0.483003 -43.5466 3.46786 -3.41431 -24.4063 -19.7569 0.934024 7.16869 31.6778 -41.1618 5.82328 9.61819 -0.917488 1.0581 -12.4808 -1.1345 -1.43611 -29.2153 -1.29706 -1.3187 51.019 -14.3807 10.1489 -14.0221 0.360758 0.0462048 0.000530889 0.662642 
29.3109 98.3341 5.45876 -9.1019 -1.97062 -96.0618 -8.80241 14.8889 3.35924 -0.399998 17.2328 19.6011 -1.40358 -24.9923 -0.0808417 -1.32547e-009 8.75233e-006 -1.47701e-008 -3.90459 15.7285 -1.13858 -0.473941 1.05236 -1.57113 38.357 1.80494 0.0601802 33.1085 -22.0286 -12.1239 9.49348 43.3011 4.58489 -8.36873 9.58861 -0.729565 -43.5879 3.46971 -3.41155 -24.3588 -20.3515 -0.620307 8.53816 31.9609 -44.8113 5.82328 9.61819 -0.917488 0.999072 -12.6075 -1.37451 -1.67908 -28.5601 -2.12525 -1.08156 37.9301 -14.4654 10.6109 -15.2111 0.4924 0.0462048 0.000530889 0.662642 
25.0686 97.5591 5.41057 -8.84028 -2.37679 -95.0507 -9.09757 18.121 3.72898 -0.417243 15.896 18.3419 -2.21686 -26.1952 -0.227175 -1.32547e-009 8.75233e-006 -1.47701e-008 -3.82779 14.9535 -1.36069 0.283317 1.74686 -1.86585 38.4721 1.80054 0.0406002 32.1656 -24.0202 -12.4113 10.0181 44.4686 2.88162 -8.64201 9.57441 -0.682821 -43.7418 3.48496 -3.41908 -24.3014 -19.9826 -2.1591 9.44208 32.0569 -47.2294 5.82328 9.61819 -0.917488 0.801827 -12.721 -1.64326 -2.154 -27.5916 -2.94512 -0.707599 25.1775 -14.9459 11.3586 -15.8678 0.605734 0.0462048 0.000530889 0.662642 
20.5726 96.508 5.27898 -8.52604 -2.76255 -93.7081 -9.10016 20.7695 4.37815 -0.227588 16.1093 16.4955 -3.75027 -27.7074 -0.528315 -1.32547e-009 8.75233e-006 -1.47701e-008 -3.79929 14.3067 -1.64328 1.15365 1.9681 -2.2845 38.4551 1.79415 0.0279151 31.6138 -25.3908 -12.3759 10.3932 44.624 1.51771 -8.77607 9.5664 -0.645157 -43.8792 3.49692 -3.42204 -24.5429 -19.1058 -3.45873 10.1292 32.3114 -48.3377 5.82328 9.61819 -0.917488 0.402267 -12.7253 -2.02083 -2.95542 -26.6786 -2.58706 0.387104 15.7224 -16.5201 12.1164 -16.5959 0.737618 0.0462048 0.000530889 0.662642 
15.7904 95.4044 4.98288 -8.32357 -3.04282 -92.028 -8.60506 23.0515 5.1331 0.281193 17.7723 13.7991 -5.50558 -28.4765 -0.883917 -1.32547e-009 8.75233e-006 -1.47701e-008 -4.14319 13.6913 -1.92371 2.57862 2.10011 -2.87657 38.3679 1.78911 0.0224765 31.3478 -26.4401 -11.9693 10.5041 44.4071 0.720057 -8.53224 9.59073 -0.864159 -43.9243 3.49573 -3.41289 -25.2152 -17.8638 -4.42361 10.4794 32.7177 -48.0054 5.82328 9.61819 -0.917488 -0.0706413 -12.7543 -2.48449 -3.6473 -25.9637 -1.94157 1.10803 11.8143 -17.6941 12.5447 -17.7079 0.887606 0.0462048 0.000530889 0.662642 
10.7507 94.4643 4.55246 -8.07241 -2.76305 -90.2687 -7.19475 25.1632 5.21514 0.907891 19.9121 11.3028 -7.63664 -28.0861 -1.26487 -1.32547e-009 8.75233e-006 -1.47701e-008 -3.9145 12.8038 -2.26302 4.1204 2.43652 -3.50262 38.4029 1.78737 0.0104007 31.2051 -27.1564 -11.3253 10.4251 44.0012 0.536639 -8.70877 9.59406 -1.01957 -43.9081 3.48772 -3.39951 -26.0142 -15.9654 -4.8525 10.1481 33.0106 -46.2103 5.82328 9.61819 -0.917488 -0.442589 -12.8472 -2.90492 -3.30784 -25.7606 -2.17187 0.936531 13.382 -18.246 11.2174 -17.254 0.731528 0.0462048 0.000530889 0.662642 
5.46794 93.7235 4.14992 -7.72324 -1.28491 -88.8821 -4.59547 26.8555 4.30233 1.02907 22.5483 10.7411 -10.9373 -26.555 -1.7275 -1.32547e-009 8.75233e-006 -1.47701e-008 -1.44775 11.756 -2.70591 4.54117 2.54741 -3.75549 38.5255 1.78713 -0.00528667 31.1786 -27.4789 -10.4659 10.3846 43.4901 0.593592 -9.69331 9.52979 -0.666372 -44.0079 3.49391 -3.39683 -26.6239 -13.5271 -4.33213 9.15082 33.0391 -43.259 5.82328 9.61819 -0.917488 -0.788275 -12.7677 -3.11816 -1.38784 -26.4065 -2.72917 0.41986 18.4776 -18.8816 7.79563 -13.3306 0.195501 0.0462048 0.000530889 0.662642 
0.0203046 93.1581 3.8387 -7.54114 0.84033 -89.0362 -1.39988 27.4045 4.21393 0.771911 27.2614 11.4246 -14.1388 -22.4659 -1.75851 -1.32547e-009 8.75233e-006 -1.47701e-008 2.98509 11.0572 -2.9827 3.66681 2.03231 -3.37748 38.4852 1.7877 -0.00373589 31.5476 -27.5694 -8.75817 10.6178 43.3898 0.214485 -10.5593 9.44341 -0.0381364 -44.3402 3.52834 -3.4149 -27.2658 -11.524 -2.64075 7.93935 32.931 -39.7702 5.82328 9.61819 -0.917488 -1.23519 -12.4425 -2.95191 1.70794 -27.7377 -4.14853 -0.49245 25.4111 -17.2903 4.15036 -7.74913 -0.170244 0.0462048 0.000530889 0.662642 
-5.29405 92.8203 3.4473 -7.57974 3.28925 -90.343 1.57929 25.792 5.55721 0.884004 35.3523 11.8743 -13.6325 -13.9803 -0.741088 -1.32547e-009 8.75233e-006 -1.47701e-008 6.71207 10.9247 -2.87767 3.12711 1.3064 -2.73974 38.275 1.7884 0.0169988 32.6116 -27.6424 -5.39859 11.1018 43.7493 -0.733815 -10.4155 9.43269 0.167781 -44.7485 3.57998 -3.45474 -28.2892 -10.6982 -0.177069 6.79786 32.7489 -36.348 5.82328 9.61819 -0.917488 -1.55596 -12.2318 -2.40297 5.00378 -28.3411 -3.96447 -1.08344 31.7335 -15.6116 1.23058 -4.85324 -0.192764 0.0462048 0.000530889 0.662642 
-9.95097 92.5581 2.83755 -7.6418 5.01643 -90.3237 4.47279 21.1149 5.31628 1.10003 46.6834 12.8053 -8.74464 -3.73894 0.29486 -1.32547e-009 8.75233e-006 -1.47701e-008 8.27738 11.1144 -2.86677 4.10114 1.098 -2.45141 38.235 1.78855 0.0276736 34.3494 -27.8494 -0.611148 11.3428 43.6344 -1.24283 -9.80363 9.48962 -0.189004 -44.9841 3.61988 -3.49684 -29.496 -10.1918 2.13559 5.51104 32.1493 -33.1702 5.82328 9.61819 -0.917488 -1.36581 -12.401 -1.91086 7.74596 -27.9816 -2.33952 -1.12554 36.7289 -16.1902 -1.13159 -6.70487 -0.160887 0.0462048 0.000530889 0.662642 
-13.8763 92.4836 2.15597 -7.70773 6.08672 -88.7354 6.83494 14.0949 2.96293 1.65241 58.9222 14.7114 -3.6009 2.44631 0.310248 -1.32547e-009 8.75233e-006 -1.47701e-008 9.10427 11.4323 -3.28609 5.41445 1.33659 -2.54224 38.5 1.78747 0.00884855 36.5216 -28.1518 4.35018 10.7801 42.0978 0.0217441 -9.8904 9.50796 -0.479932 -45.0379 3.62628 -3.50113 -30.377 -8.34464 3.4799 3.86621 30.8 -30.0009 5.82328 9.61819 -0.917488 -0.725734 -12.6956 -2.19762 9.62591 -26.896 -1.42668 -1.26134 40.0051 -18.536 -2.19465 -10.6502 -0.244939 0.0462048 0.000530889 0.662642 
-17.7137 93.0871 1.60247 -8.08996 6.47436 -86.6264 7.46685 6.58027 0.059776 2.65162 69.3695 17.7033 -1.44335 2.8618 0.100266 -1.32547e-009 8.75233e-006 -1.47701e-008 10.374 11.7678 -3.61346 5.14136 1.4403 -2.387 38.7063 1.78432 -0.0150911 38.8107 -27.7325 8.55763 9.65422 38.9997 3.23788 -10.7615 9.44998 -0.236133 -45.0475 3.6022 -3.45328 -30.7218 -5.07285 3.83743 2.25168 29.0632 -26.9202 5.82328 9.61819 -0.917488 -0.116831 -12.7756 -3.56568 10.3931 -24.3407 -1.5689 -1.368 40.8936 -20.7523 -1.48847 -13.648 -0.28943 0.0462048 0.000530889 0.662642 
-21.7453 94.2866 1.20361 -8.78562 6.13133 -85.4102 6.22663 -0.258741 -2.19315 4.17056 76.5108 18.7675 -3.52853 0.427574 0.227021 -1.32547e-009 8.75233e-006 -1.47701e-008 11.6103 12.0286 -3.33022 3.28787 1.48641 -1.58069 38.4609 1.77685 -0.0114659 40.3727 -23.9045 11.901 8.33444 33.7043 7.87169 -11.4682 9.37598 0.23748 -45.1124 3.57385 -3.38906 -30.6486 -2.43797 3.96302 1.14211 27.856 -24.4643 5.82328 9.61819 -0.917488 0.106609 -12.6383 -5.48131 10.1511 -20.1194 -2.3227 -1.37157 39.6047 -21.1173 -0.213201 -15.556 -0.240034 0.0462048 0.000530889 0.662642 
-25.7238 95.529 0.864765 -9.36224 5.24295 -85.2662 3.93896 -6.48982 -3.79114 5.63785 80.1143 15.9274 -5.58449 -2.33426 0.261406 -1.32547e-009 8.75233e-006 -1.47701e-008 12.1908 12.1666 -2.56665 1.22894 1.70072 -0.357026 37.8114 1.7666 0.0190471 40.0438 -15.0324 14.556 6.7038 25.8707 13.4978 -11.5178 9.34792 0.517501 -45.01 3.53943 -3.33772 -30.5578 -2.41892 4.58533 0.464303 27.9633 -22.9123 5.82328 9.61819 -0.917488 0.00223228 -12.407 -7.19988 9.30506 -15.4074 -3.3822 -1.29914 37.3325 -20.0499 0.43067 -17.3344 -0.200238 0.0462048 0.000530889 0.662642 
